<svg width="24" height="24" viewBox="0 0 24 24" fill="none" xmlns="http://www.w3.org/2000/svg">
<path d="M11.8748 6.19999C12.6963 6.19999 13.726 5.64462 14.3392 4.90412C14.8946 4.23305 15.2996 3.29586 15.2996 2.35868C15.2996 2.2314 15.288 2.10413 15.2648 2C14.3508 2.03471 13.2516 2.61322 12.5921 3.38843C12.0715 3.97851 11.5971 4.90412 11.5971 5.85288C11.5971 5.99172 11.6202 6.13057 11.6318 6.17685C11.6896 6.18842 11.7822 6.19999 11.8748 6.19999ZM8.98222 20.2C10.1045 20.2 10.602 19.4479 12.002 19.4479C13.4252 19.4479 13.7376 20.1768 14.9872 20.1768C16.2136 20.1768 17.0351 19.0429 17.8103 17.9322C18.6781 16.6595 19.0367 15.4099 19.0599 15.352C18.9789 15.3289 16.6301 14.3686 16.6301 11.6727C16.6301 9.33552 18.4814 8.28263 18.5855 8.20164C17.3591 6.44296 15.4963 6.39668 14.9872 6.39668C13.6103 6.39668 12.488 7.22974 11.7822 7.22974C11.0186 7.22974 10.012 6.44296 8.82024 6.44296C6.55247 6.44296 4.25 8.31734 4.25 11.8578C4.25 14.0562 5.1062 16.3818 6.15909 17.8859C7.06156 19.1586 7.84834 20.2 8.98222 20.2Z" fill="#111827"/>
</svg>
