<svg width="24" height="24" viewBox="0 0 24 24" fill="none" xmlns="http://www.w3.org/2000/svg">
<path fill-rule="evenodd" clip-rule="evenodd" d="M20.458 12.1942C20.458 11.5879 20.4036 11.0049 20.3025 10.4453H12.25V13.7526H16.8515C16.6532 14.8214 16.0509 15.7269 15.1453 16.3332V18.4784H17.9085C19.5253 16.9899 20.458 14.798 20.458 12.1942Z" fill="#4285F4"/>
<path fill-rule="evenodd" clip-rule="evenodd" d="M12.2502 20.5495C14.5587 20.5495 16.4941 19.7839 17.9088 18.4781L15.1456 16.3328C14.3799 16.8458 13.4006 17.149 12.2502 17.149C10.0233 17.149 8.13844 15.6449 7.4661 13.624H4.60962V15.8393C6.01648 18.6335 8.90794 20.5495 12.2502 20.5495Z" fill="#34A853"/>
<path fill-rule="evenodd" clip-rule="evenodd" d="M7.46608 13.6244C7.29508 13.1114 7.19792 12.5634 7.19792 11.9999C7.19792 11.4364 7.29508 10.8884 7.46608 10.3754V8.16016H4.6096C4.03054 9.31441 3.7002 10.6202 3.7002 11.9999C3.7002 13.3795 4.03054 14.6854 4.6096 15.8396L7.46608 13.6244Z" fill="#FBBC05"/>
<path fill-rule="evenodd" clip-rule="evenodd" d="M12.2502 6.84979C13.5055 6.84979 14.6326 7.28117 15.5186 8.1284L17.9709 5.67611C16.4902 4.29645 14.5548 3.44922 12.2502 3.44922C8.90794 3.44922 6.01648 5.3652 4.60962 8.15949L7.4661 10.3747C8.13844 8.35381 10.0233 6.84979 12.2502 6.84979Z" fill="#EA4335"/>
</svg>
