<svg width="162" height="36" viewBox="0 0 162 36" fill="none" xmlns="http://www.w3.org/2000/svg">
<path d="M159.723 8.93076C158.471 8.93076 157.447 9.88461 157.447 11.2132C157.447 12.5304 158.471 13.4843 159.723 13.4843C160.975 13.4843 162 12.5304 162 11.2132C162 9.88461 160.975 8.93076 159.723 8.93076ZM159.723 13.0414C158.733 13.0414 157.913 12.2579 157.913 11.2132C157.913 10.1458 158.733 9.36226 159.723 9.36226C160.725 9.36226 161.545 10.1458 161.545 11.2132C161.545 12.2579 160.725 13.0414 159.723 13.0414ZM160.714 10.793C160.714 10.3729 160.372 10.1004 159.86 10.1004H158.892V12.1897H159.348V11.5198H159.689L160.281 12.1897H160.827L160.179 11.4744C160.509 11.3722 160.714 11.1223 160.714 10.793ZM159.348 11.111V10.5092H159.86C160.099 10.5092 160.258 10.6227 160.258 10.8044C160.258 10.9861 160.099 11.111 159.86 11.111H159.348Z" fill="#3A454F"/>
<path d="M10.6912 8.4659C8.24961 8.4659 6.32594 9.2465 4.88318 10.6962V0.808594H0V27.572H4.88318V19.3571C4.88318 14.8222 6.69588 12.9636 9.47041 12.9636C11.727 12.9636 13.2068 14.7107 13.2068 17.3127V27.572H18.09V16.2719C18.09 11.6626 15.1305 8.4659 10.6912 8.4659Z" fill="#3A454F"/>
<path d="M37.6666 17.9446C37.4816 12.2946 33.2274 8.4659 28.3072 8.4659C23.0171 8.4659 18.7628 12.4804 18.7628 18.3163C18.7628 24.1522 23.0171 28.1296 28.2332 28.1296C32.2655 28.1296 35.558 26.271 37.1857 22.4052L32.8204 21.4759C31.4887 23.7433 29.676 23.9292 28.2332 23.9292C25.9766 23.9292 24.0899 22.2937 23.609 19.6173H37.6666V17.9446ZM28.3072 12.7406C30.2679 12.7406 32.0436 13.7814 32.6725 16.1604H23.7569C24.3489 13.8558 26.4575 12.7406 28.3072 12.7406Z" fill="#3A454F"/>
<path d="M43.6703 27.572V0.808594H38.7871V27.572H43.6703Z" fill="#3A454F"/>
<path d="M51.1601 27.572V0.808594H46.2769V27.572H51.1601Z" fill="#3A454F"/>
<path d="M62.3493 8.57741C56.8372 8.57741 52.287 12.4804 52.287 18.3163C52.287 24.1522 56.8372 28.0552 62.3493 28.0552C67.7504 28.0552 72.3006 24.1522 72.3006 18.3163C72.3006 12.4804 67.7504 8.57741 62.3493 8.57741ZM62.3493 23.8549C59.6857 23.8549 57.0222 21.7733 57.0222 18.3163C57.0222 14.8594 59.6857 12.7778 62.3493 12.7778C64.9018 12.7778 67.5654 14.8594 67.5654 18.3163C67.5654 21.7733 64.9018 23.8549 62.3493 23.8549Z" fill="#3A454F"/>
<path d="M68.8652 28.9872C69.9443 28.352 70.9184 27.5575 71.7554 26.6363H74.2693C80.4079 26.6363 83.8037 22.8813 83.8037 18.0488C83.8037 13.1837 80.4079 9.42868 74.2693 9.42868H71.1855C70.2026 8.48034 69.063 7.69335 67.8093 7.11039H74.302C81.9752 7.11039 86.4158 11.8449 86.4158 18.0488C86.4158 24.22 81.9752 28.9872 74.302 28.9872H68.8652Z" fill="#3A454F"/>
<path fill-rule="evenodd" clip-rule="evenodd" d="M103.242 21.4446H89.4305C89.6591 25.069 92.4018 27.224 95.1773 27.224C97.4629 27.224 99.52 26.3424 100.663 23.7629L102.883 24.2853C101.61 27.6485 98.8016 29.4117 95.1773 29.4117C90.8999 29.4117 87.0143 26.1138 87.0143 20.9875C87.0143 15.8285 90.8999 12.498 95.3405 12.498C99.6832 12.498 103.079 15.7305 103.242 20.5303V21.4446ZM95.3405 14.6856C92.7284 14.6856 90.0183 16.4162 89.5285 19.5834H100.728C100.271 16.4162 98.018 14.6856 95.3405 14.6856Z" fill="#3A454F"/>
<path d="M106.018 24.0894L103.536 24.6445C103.928 27.7791 106.867 29.4117 110.557 29.4117C114.41 29.4117 117.054 27.6158 117.054 24.4486C117.054 21.9997 115.258 20.7589 112.908 20.2365L109.022 19.3875C107.455 19.0283 106.573 18.4406 106.573 17.1672C106.573 15.6325 107.846 14.5224 110.132 14.5224C112.516 14.5224 114.05 15.7305 114.377 17.4937L116.76 16.9713C116.173 14.3591 113.822 12.498 110.197 12.498C106.508 12.498 104.091 14.4571 104.091 17.3631C104.091 19.5834 105.593 20.9222 108.271 21.4772L111.961 22.2935C113.593 22.6527 114.605 23.2731 114.605 24.6118C114.605 26.2771 113.071 27.3546 110.752 27.3546C108.206 27.3546 106.247 26.2118 106.018 24.0894Z" fill="#3A454F"/>
<path d="M119.074 28.9872V14.1469C119.074 13.4526 119.637 12.8898 120.331 12.8898C121.026 12.8898 121.588 13.4526 121.588 14.1469V28.9872H119.074Z" fill="#3A454F"/>
<path fill-rule="evenodd" clip-rule="evenodd" d="M139.924 27.6811L139.892 12.8898H137.475V15.1101C136.169 13.4449 134.112 12.498 131.435 12.498C127.19 12.498 123.5 15.6979 123.5 20.2365C123.5 24.8077 127.19 28.0403 131.435 28.0403C134.112 28.0403 136.169 27.0934 137.475 25.3955V27.3546C137.475 30.783 135.222 32.9381 131.827 32.9381C128.823 32.9381 127.19 31.73 126.047 29.5749L123.957 31.0116C125.198 33.6238 127.843 35.1911 131.827 35.1911C136.692 35.1911 139.892 32.383 139.924 27.6811ZM137.475 20.2365C137.475 23.6649 134.798 25.8853 131.794 25.8853C128.529 25.8853 125.917 23.6649 125.917 20.2365C125.917 16.808 128.529 14.653 131.794 14.653C134.798 14.653 137.475 16.808 137.475 20.2365Z" fill="#3A454F"/>
<path d="M151.575 12.498C155.46 12.498 158.04 15.2734 158.04 19.3549V28.9872H155.558V19.812C155.558 16.808 153.762 14.7836 151.085 14.7836C147.722 14.7836 145.502 17.0692 145.502 21.2487V28.9872H143.02V12.8898H145.502V15.5672C146.808 13.6081 148.865 12.498 151.575 12.498Z" fill="#3A454F"/>
</svg>
